<svg id="Layer_1" data-name="Layer 1" xmlns="http://www.w3.org/2000/svg" viewBox="0 0 500 500"><defs><style>.cls-1{fill:#fff;}</style></defs><rect class="cls-1" width="500" height="500" rx="20"/><path d="M40.6,178.12c0-42.8,24.4-66.8,60.4-66.8s60.4,24.2,60.4,66.8c0,42.8-24.4,68-60.4,68S40.6,220.92,40.6,178.12Zm85.6,0c0-23.6-9.6-37.2-25.2-37.2s-25.2,13.6-25.2,37.2,9.6,38.4,25.2,38.4S126.2,201.72,126.2,178.12Z"/><path d="M186.6,227.52l19.6-23.6c9.2,7.4,20.8,12.6,30.4,12.6,10.4,0,14.8-3.4,14.8-9.2,0-6.2-6.6-8.2-17.6-12.6l-16.2-6.8c-14-5.6-26.2-17.4-26.2-36.2,0-22.2,20-40.4,48.4-40.4,14.8,0,31.2,5.6,43.2,17.4l-17.2,21.6c-8.8-6.2-16.4-9.4-26-9.4-8.4,0-13.6,3-13.6,8.8,0,6.2,7.4,8.4,19.2,13l15.8,6.2c16.2,6.4,25.4,17.6,25.4,35.6,0,22-18.4,41.6-50.8,41.6C219.4,246.12,200.6,240.12,186.6,227.52Z"/><path d="M317.4,113.72h36.8l19.6,53.2c2.4,7.2,4.4,15.2,6.8,22.8h.8c2.4-7.6,4.4-15.6,6.8-22.8l18.8-53.2h36.8v130H412.6v-38.4c0-13.2,2.8-33.4,4.4-46.4h-.8l-10.8,31.2-16,43H371l-16-43-10.4-31.2h-.8c1.6,13,4.4,33.2,4.4,46.4v38.4H317.4Z"/><path d="M49.16,378l11.76-14.16c5.52,4.44,12.48,7.56,18.24,7.56,6.24,0,8.88-2,8.88-5.52,0-3.72-4-4.92-10.56-7.56l-9.72-4.08C59.36,350.88,52,343.8,52,332.52c0-13.32,12-24.24,29-24.24A37.5,37.5,0,0,1,107,318.72l-10.32,13C91.4,328,86.84,326,81.08,326c-5,0-8.16,1.8-8.16,5.28,0,3.72,4.44,5,11.52,7.8l9.48,3.72c9.72,3.84,15.24,10.56,15.24,21.36,0,13.2-11,25-30.48,25A45.17,45.17,0,0,1,49.16,378Z"/><path d="M122.84,357.72c0-19.44,14.16-31.44,28.8-31.44,17.76,0,26.16,13,26.16,29A42.91,42.91,0,0,1,177,364h-34.2c1.92,7.2,7.2,9.6,13.92,9.6,4.08,0,7.92-1.2,12.24-3.6l6.72,12.24a40.42,40.42,0,0,1-21.84,7C136.28,389.16,122.84,377.64,122.84,357.72Zm37.44-7.2c0-4.56-1.92-8.64-8.16-8.64-4.56,0-8.4,2.64-9.6,8.64Z"/><path d="M191.48,370.68c0-12.48,9.6-19.44,32.64-21.84-.48-4.32-3.12-6.24-8.4-6.24-4.32,0-8.88,1.68-15.12,5l-7.2-13.44c8.4-5,17-7.92,26.4-7.92,15.6,0,25,8.4,25,28.08v33.36H228L226.52,382H226c-4.8,4.32-10.08,7.2-16.56,7.2C198.2,389.16,191.48,380.52,191.48,370.68Zm32.64-1.44v-8.16c-9.84,1.44-13,4.56-13,7.92,0,2.76,1.92,4.32,5.52,4.32C220,373.32,222,371.64,224.12,369.24Z"/><path d="M264.2,327.72H281L282.44,338h.48c4.44-8.16,11.16-11.76,17-11.76a17.83,17.83,0,0,1,7.44,1.2L304,345.24a28.33,28.33,0,0,0-6.72-1c-4.32,0-9.6,2.64-12.48,10.08v33.36H264.2Z"/><path d="M316,357.72c0-19.92,15.12-31.44,32.16-31.44a26.39,26.39,0,0,1,17.52,6.24l-9.6,13.2c-2.64-2.16-4.56-2.88-6.72-2.88-7.68,0-12.24,5.76-12.24,14.88s5,14.88,11.52,14.88c3.36,0,6.72-1.68,9.6-3.84l7.92,13.44c-6,5.28-13.68,7-19.92,7C329.24,389.16,316,377.64,316,357.72Z"/><path d="M381.8,304.2h20.64v19.44l-1,10.32c4.08-3.6,9.84-7.68,18-7.68,13.2,0,18.72,9.6,18.72,24.48v37H417.56V353.4c0-7.68-1.92-9.6-6-9.6-3.84,0-6,1.68-9.12,4.56v39.36H381.8Z"/></svg>